<svg width="26" height="26" viewBox="0 0 26 26" fill="none" xmlns="http://www.w3.org/2000/svg">
<path d="M13 0C13.5523 0 14 0.447715 14 1V4C14 4.55228 13.5523 5 13 5C12.4477 5 12 4.55228 12 4V1C12 0.447715 12.4477 0 13 0Z" fill="#EBFAFF"/>
<path d="M7 13C7 9.68629 9.68629 7 13 7C16.3137 7 19 9.68629 19 13C19 16.3137 16.3137 19 13 19C9.68629 19 7 16.3137 7 13Z" fill="#EBFAFF"/>
<path d="M22.1925 5.22178C22.583 4.83126 22.583 4.19809 22.1925 3.80757C21.8019 3.41705 21.1688 3.41705 20.7782 3.80757L18.6569 5.92889C18.2664 6.31942 18.2664 6.95258 18.6569 7.3431C19.0474 7.73363 19.6806 7.73363 20.0711 7.3431L22.1925 5.22178Z" fill="#EBFAFF"/>
<path d="M26 13C26 13.5523 25.5523 14 25 14H22C21.4477 14 21 13.5523 21 13C21 12.4477 21.4477 12 22 12H25C25.5523 12 26 12.4477 26 13Z" fill="#EBFAFF"/>
<path d="M20.7781 22.1923C21.1686 22.5829 21.8018 22.5829 22.1923 22.1923C22.5828 21.8018 22.5828 21.1686 22.1923 20.7781L20.071 18.6568C19.6805 18.2663 19.0473 18.2663 18.6568 18.6568C18.2662 19.0473 18.2662 19.6805 18.6568 20.071L20.7781 22.1923Z" fill="#EBFAFF"/>
<path d="M13 21C13.5523 21 14 21.4477 14 22V25C14 25.5523 13.5523 26 13 26C12.4477 26 12 25.5523 12 25V22C12 21.4477 12.4477 21 13 21Z" fill="#EBFAFF"/>
<path d="M7.34334 20.071C7.73386 19.6805 7.73386 19.0473 7.34334 18.6568C6.95281 18.2663 6.31965 18.2663 5.92912 18.6568L3.8078 20.7781C3.41728 21.1687 3.41728 21.8018 3.8078 22.1923C4.19833 22.5829 4.83149 22.5829 5.22202 22.1923L7.34334 20.071Z" fill="#EBFAFF"/>
<path d="M5 13C5 13.5523 4.55228 14 4 14H1C0.447715 14 0 13.5523 0 13C5.96046e-08 12.4477 0.447715 12 1 12H4C4.55228 12 5 12.4477 5 13Z" fill="#EBFAFF"/>
<path d="M5.92897 7.34309C6.3195 7.73362 6.95266 7.73362 7.34319 7.34309C7.73371 6.95257 7.73371 6.3194 7.34319 5.92888L5.22187 3.80756C4.83134 3.41703 4.19818 3.41703 3.80765 3.80756C3.41713 4.19808 3.41713 4.83125 3.80765 5.22177L5.92897 7.34309Z" fill="#EBFAFF"/>
</svg>
